<svg id="Layer_2" data-name="Layer 2" xmlns="http://www.w3.org/2000/svg" xmlns:xlink="http://www.w3.org/1999/xlink" viewBox="0 0 1000 1000"><defs><style>.cls-1,.cls-10,.cls-2,.cls-3,.cls-6{fill:none;}.cls-2{stroke:#ccdde2;}.cls-10,.cls-2,.cls-6{stroke-miterlimit:10;}.cls-10,.cls-2,.cls-3,.cls-6{stroke-width:7.24px;}.cls-10,.cls-3{stroke:#000;}.cls-3{stroke-linecap:round;stroke-linejoin:round;}.cls-4{fill:#3fbdf1;}.cls-5{fill:#d7e8f0;}.cls-6{stroke:#fff;}.cls-7{fill:#fff;}.cls-8{clip-path:url(#clip-path);}.cls-9{fill:#2e2e2e;}</style><clipPath id="clip-path"><rect class="cls-1" x="111.11" y="131.61" width="645.91" height="812.51"/></clipPath></defs><path class="cls-2" d="M751.9,243.67c-4.16-11.54-8.79-23-13.86-34.14-10.1-22.17-12.42-43.18-26.61-61.72"/><path class="cls-2" d="M678.54,126.56c-12.21-12.42-23.63-25.77-44.38-35.74-43.85-21-99.92-23.13-171.49,6.57"/><path class="cls-2" d="M161.78,940.48C92.43,842.45,70,731.62,81.59,618.27"/><path class="cls-2" d="M790.92,457.89v1.21c-.68,22,19.65,113.2,77.31,142.17S967,757.4,837,807.29,714.08,940.48,714.08,940.48"/><path class="cls-3" d="M462.66,191.55V83.81a28,28,0,0,0-27.93-27.93H77.93A28,28,0,0,0,50,83.81v506.6a27.92,27.92,0,0,0,27.93,27.87h356.8a26.4,26.4,0,0,0,10.1-1.94"/><rect class="cls-4" x="62.53" y="72.95" width="387.6" height="528.31" rx="24.95"/><rect class="cls-4" x="85.35" y="113.83" width="346.2" height="98.92" rx="12.48"/><circle class="cls-5" cx="256.33" cy="145.26" r="10.23"/><path class="cls-5" d="M227.74,191.55a28.59,28.59,0,0,1,57.18,0Z"/><path class="cls-5" d="M258.41,318.74a55.13,55.13,0,1,0,55.1,55.1A55.13,55.13,0,0,0,258.41,318.74Zm0,96.91a8,8,0,1,1,0-16.09,8,8,0,1,1,0,16.09Zm10.21-62c-1.73,11.94-3.19,24.53-6.7,36.14-.86,2.76-6.1,2.76-7,0a204.86,204.86,0,0,1-5.78-26.63c-1.08-6.54-4.91-17.12-1.24-23.5,3.19-5.67,12.26-6.37,17.5-3.4C271.91,340,269.37,347.75,268.62,353.69Z"/><line class="cls-6" x1="119.97" y1="256.91" x2="389.16" y2="256.91"/><line class="cls-6" x1="119.97" y1="283.4" x2="389.16" y2="283.4"/><line class="cls-6" x1="119.97" y1="454.03" x2="389.16" y2="454.03"/><line class="cls-6" x1="182.5" y1="479.09" x2="326.63" y2="479.09"/><path class="cls-7" d="M148.57,643.2s47.9-190.34,197.09-236.83L406.3,391.9s9.59-42.83,6.06-47.33-10.78-13.72-24.06-11.72-47.61,2.64-56.4-39.33S355.59,151.79,440,136.87s86.38,47.06,86.38,47.06l-62,143.67L474,443.5l1.21,172.65Z"/><g class="cls-8"><path class="cls-9" d="M664.12,496.16c-1,.29-13.76,4-18.78,12.84a11.8,11.8,0,0,0-10.68-6.76H484.81a11.77,11.77,0,0,0-11.49,9.13L443.81,637.9c-2-.39-4-.63-6.08-.83l-69.64-17.38a12.38,12.38,0,0,0-14.68,7.87,11.74,11.74,0,0,0-.68,4.06A12.41,12.41,0,0,0,364.27,644l32.93,2.12c-31.72,14.93-70.31,43.37-102.52,69.5-31.34-49.07-1.93-98.13,20.19-124.55-2.85-29.12-17.29-96.73-89.34-94.89,24.82-31.83,55.77-59.11,94.12-77.37,131.36,145.6,281.64,26.56,284.83,24a264.34,264.34,0,0,1,59.64,53.37"/><path class="cls-9" d="M650.47,913.84V939H216.66V903.36c16.9,1,34.68-3,50.85-10.29,20.47-9.32,38.15-23.8,53.27-40.32,15.55-17.1,24.09-40.81,34-61.43,14.88-31.05,34.59-53.17,65.87-62.54l-2,8.6a11.82,11.82,0,0,0,11.49,14.49H580.74c-3,26-15.65,168,69.73,162"/><path class="cls-9" d="M580.81,252.13A166.36,166.36,0,0,1,575.59,292a33.07,33.07,0,0,1-26.12,24.59c-.25-9.08-4.11-17.05-10-22a144.73,144.73,0,0,0-.23-23.08c-.39-5.07-1-9.8-1.64-14.05a52.12,52.12,0,0,0-1.65-7.15,25.62,25.62,0,0,0-7-5.31c-9.27-5.22-28.35-10.77-63.7-2.61a42.32,42.32,0,0,0-15.94,7.39,1.2,1.2,0,0,0-.28.24c-3.19,2.94-7.25,6.66-11.45,8.59-4.35,2-8.89,2.08-12.7-2.65-.1-.1-.15-.19-.24-.29-2-2.61-3.91-6-7.44-6.67-7.44-1.4-11.06,6-12,12.22-.82,5.75.87,10.82,3.34,15.65a40.28,40.28,0,0,0,8,10.53,20.48,20.48,0,0,1,2.27,2.6,5.06,5.06,0,0,0-.91.25,16.58,16.58,0,0,0-2,.82c-9,4.05-15.41,14.2-15.55,26.08,0,.37-15.09.15-17,0-7.36-.68-14.61-2.8-19.79-8.35-14.7-15.75-14.63-39.12-8.59-57.4,5.72-17.35,13-34.29,22.54-49.9,20.67-33.78,52.74-58.7,93.34-60.94a134.54,134.54,0,0,1,29.11,1.7,109.88,109.88,0,0,1,13.47,3c41.39,18.06,67.66,59,67.42,106.87"/><path class="cls-4" d="M556.84,637.23c-4.89,12.55-16.53,19.73-26,16s-13.19-16.85-8.31-29.4,16.53-19.74,26-16,13.2,16.86,8.31,29.41"/><path class="cls-10" d="M582,749.31s-26.56,185.15,79.68,164.63c105.66-20.43,145.65-450.28-160.19-512.1"/><path class="cls-10" d="M333.26,571.06s-85.72,72.29-39.53,144.59"/><path class="cls-10" d="M583.93,697.88c-1.47.09-3.57-.89-5-1.28q-2.72-.72-5.39-1.54a98,98,0,0,1-29.07-14.72c-2-1.43-5.56-2.35-8-1.41a8.07,8.07,0,0,0-5.2,6.37c-.75,5.16,2.89,10.21,6.86,13.52,4.71,3.94,9.6,7.57,15.31,9.93a106.81,106.81,0,0,0,17,5.23c2.63.61,5.3,1,7.91,1.67"/><path class="cls-10" d="M616.83,647.79c1.08,5.7,1.87,11.62,1.33,17.41-.45,4.9-2.21,10.62-7.66,11.81a9.58,9.58,0,0,1-3.18.29c-20.52-1.21-37.43-8.3-56.74-22.26s-26.11,18.19-8.47,23.89"/><path class="cls-10" d="M542.85,702.7a16,16,0,0,1-1.35-1.25c-9.61-10.05-11.35,10.14-1.26,16.08l1.3.77c.68.29,1.41.63,2.13,1,.34.09.72.24,1.07.34,9.12,4,18.83,6.56,28.39,9.17-9.46-3.09-18.89-6.13-28.39-9.17-.82-.34-1.6-.68-2.42-1.07a4.2,4.2,0,0,0-.78-.24,1.07,1.07,0,0,0-1.06.1,1.48,1.48,0,0,0-.48.72c-1.55,3.72-.29,8.41,1.69,11.74,2.08,3.52,5.65,6.23,9.17,8.16,9.47,5.31,20.48,8.45,31.11,10.33a21.65,21.65,0,0,0,6,.39"/><path class="cls-10" d="M673.72,772.68s-32.59-55.54-36.22-103.83c-2.22-29.89-11-36.22-17.28-36.65"/><path class="cls-10" d="M610.5,677l6.34-29.21,3.38-15.6,25.06-115.66a11.81,11.81,0,0,0-11.54-14.3H483.88a11.78,11.78,0,0,0-11.49,9.13L442.88,637.9l-21.54,92.33-2,8.65a11.83,11.83,0,0,0,11.5,14.48H581.43"/><path class="cls-4" d="M424.7,252.63s7.93-33.63,52.71-38.09,56,29,56,29L532,246.91S473.13,223.29,440.62,257c0,0-11.71,5.31-15.92-4.35"/><path class="cls-10" d="M436.78,637.07l-69.65-17.4a12.34,12.34,0,1,0-3.8,24.29l32.93,2.17"/><path class="cls-10" d="M603.58,442.76S451.45,566,318.71,418.81"/><path class="cls-10" d="M313.94,591.05c-2.85-29.12-17.28-96.78-89.39-94.89"/><path class="cls-10" d="M663.21,496.14s-13.59,3.74-18.8,12.88"/><line class="cls-10" x1="111.12" y1="940.5" x2="757.03" y2="940.5"/><path class="cls-4" d="M539.47,294.63c6.09,5.12,10,13.48,10,22.94,0,15.7-10.91,28.4-24.39,28.4a20.56,20.56,0,0,1-4.53-.53c15.7-12,18.88-50.81,18.88-50.81"/><path class="cls-10" d="M450.66,358a59.7,59.7,0,0,0,49,1.89c44.18-18.45,42.49-72.83,37.9-102.39A56,56,0,0,0,536,250.4a0,0,0,0,0,0-.05c-5.07-16.9-18.3-30.67-35.73-34.58-33.76-7.63-64.63,11.51-77.44,37.28"/><path class="cls-10" d="M536.42,250.93s-.14-.2-.43-.53a0,0,0,0,0,0-.05c-3-3.38-20.37-19.51-70.65-7.92a42.2,42.2,0,0,0-15.93,7.39,1.26,1.26,0,0,0-.3.24"/><path class="cls-10" d="M402.4,332.85H377.53c-17.95,0-32.18-16.44-38.37-31.87-8.7-21.7-3.13-43.91,4.7-65,6.56-17.65,14.9-34.8,25.87-50.15,24.56-34.35,61.64-53.81,104.26-50.21q5.67.48,11.29,1.4c57.23,9.28,95.82,57.13,95.53,115.08A166.42,166.42,0,0,1,575.59,292a33.17,33.17,0,0,1-26.13,24.59"/><path class="cls-10" d="M418.83,290a21.36,21.36,0,0,0-2.27-2.61,40.07,40.07,0,0,1-8-10.52c-2.47-4.83-4.16-9.9-3.34-15.65.92-6.18,4.54-13.62,12-12.22,3.53.68,5.41,4.06,7.44,6.67,7.72,10,18.35-.05,24.87-6.09"/><path class="cls-10" d="M539.47,294.63c6.09,5.12,10,13.48,10,22.94,0,15.7-10.91,28.4-24.39,28.4a20.56,20.56,0,0,1-4.53-.53"/><path class="cls-10" d="M487.28,313.9c5.46,3.67,18.65,6.68,16-4.2-3.18-12.89-7.46-40.43,18.75-42.53,0,0,11.54.49,17.24,4.41"/><path class="cls-10" d="M497.15,335.45s-13.2,7-19.74-6.95"/><path d="M470.38,286c-.51,4.43,1.22,8.26,3.87,8.57s5.21-3,5.73-7.46-1.23-8.25-3.87-8.56-5.22,3-5.73,7.45"/><path d="M513.36,288.61c-.51,4.42,1.22,8.26,3.87,8.57s5.21-3,5.72-7.46-1.22-8.26-3.86-8.56-5.22,3-5.73,7.45"/><path class="cls-10" d="M487.28,270s-8.08-12.46-26.39-.64"/><line class="cls-10" x1="501.48" y1="359.07" x2="501.48" y2="428.19"/><path class="cls-10" d="M228.22,772.68s28.49-27,65.49-57c32.21-26.13,70.84-54.62,102.57-69.54,4.06-1.89,8-3.58,11.83-5a64.74,64.74,0,0,1,28.69-4,59,59,0,0,1,6.08.82"/><path class="cls-10" d="M421.34,730.23v0c-31.29,9.37-51,31.49-65.87,62.54-9.89,20.62-18.45,44.33-34,61.43-15.11,16.51-32.79,31-53.26,40.32-37.14,16.9-82.87,15.6-107-21.15-16.32-24.92-22.74-55.88-26-85-5.6-50.61,12.08-193.27,89.34-292.22,24.82-31.83,55.78-59.11,94.12-77.37C345.58,406,376,397.64,410.48,395.27l9.66-49.83"/><line class="cls-10" x1="651.16" y1="915.52" x2="651.16" y2="940.5"/><line class="cls-10" x1="217.35" y1="906.6" x2="217.35" y2="940.5"/><path class="cls-4" d="M449.06,317.57A30.58,30.58,0,0,1,441.58,338a20.9,20.9,0,0,1-8.79,1.93c-13.47,0-24.39-12.7-24.39-28.4a30.51,30.51,0,0,1,7.49-20.42,20.79,20.79,0,0,1,8.79-1.94c13.47,0,24.38,12.71,24.38,28.4"/><ellipse class="cls-10" cx="424.7" cy="317.57" rx="24.36" ry="28.4"/></g><path class="cls-5" d="M714.32,69.38a79.18,79.18,0,1,0,53.26,98.5A79.18,79.18,0,0,0,714.32,69.38ZM674.54,202.82a11.57,11.57,0,0,1,6.62-22.18,11.57,11.57,0,0,1-6.62,22.18Zm40-80.94q-.25.6-.48,1.17a258.28,258.28,0,0,1-24.09,45.59c-2.31,3.5-9.55,1.34-9.57-2.86a294.58,294.58,0,0,1,3-39c1.16-9.44.26-25.6,7.89-32.86,6.77-6.5,19.54-3.71,25.56,2.53C723.5,103.38,717.74,114.27,714.51,121.88Z"/><path class="cls-4" d="M769.1,523.4a39.61,39.61,0,1,0,56-.48A39.61,39.61,0,0,0,769.1,523.4Zm49.68,48.83a5.79,5.79,0,0,1-8.26-8.12,5.79,5.79,0,1,1,8.26,8.12Zm-26.64-36.45c5.27,6.9,11,14,15.14,21.64,1,1.84-1.65,4.54-3.51,3.56a145.92,145.92,0,0,1-16.55-10.46c-3.9-2.72-11.26-6.11-12.68-11.18-1.29-4.52,2.93-9.51,7.1-10.71C786.76,527.17,789.48,532.4,792.14,535.78Z"/><path class="cls-4" d="M924.4,206.15a31.63,31.63,0,1,0-44.5,4.59A31.63,31.63,0,0,0,924.4,206.15Zm-43.17-35.09a4.62,4.62,0,0,1,7.18,5.83,4.62,4.62,0,1,1-7.18-5.83Zm23.93,27c-4.71-5.09-9.78-10.27-13.67-16.07-.94-1.39,1-3.73,2.52-3.09A117.75,117.75,0,0,1,908,186c3.3,1.87,9.41,4,10.92,7.94,1.36,3.49-1.62,7.78-4.85,9C910.08,204.48,907.52,200.53,905.16,198Z"/><path class="cls-5" d="M610,414.69c11.16,19,10.65,32.53,7.75,54.46-1.16,8.35,7.83,14,15.12,9.8,64.41-37,124.53-7.74,201.33-25.88,28.2-6.62,63.36-20.34,87.46-42.4a71.93,71.93,0,0,0,12.27-40.18c0-60-82-108.71-183.13-108.71-64.81,0-121.75,20-154.3,50.13,0,0,0,0-.09.09-8.26,12.37-12.8,25.89-12.8,40C583.56,373.53,599.57,396.87,610,414.69Z"/><path class="cls-10" d="M583.85,352c0,.5,0,1,0,1.52.36,21,10.9,40.57,23.38,57.5,8.36,11.32,18.28,23.9,15.93,37.78-1,6.12-4.45,11.67-5.31,17.81s2.41,13.8,8.61,14.12c3.94.2,7.29-2.6,10.41-5,18.45-14.3,42.43-19.65,65.75-20.59s46.61,2.14,69.94,2.8c33.64,1,67.81-3.24,98.88-16.14,27.84-11.54,53.35-30.48,70.1-55.78,16.46-24.84,6.73-60.91-10.83-82.51-16.46-20.27-40.31-33.24-64.77-42.38-65.79-24.56-140.88-24-205.76,2.91-19.26,8-37.89,18.4-52.33,33.45C593.78,312.15,584,331.69,583.85,352Z"/><circle class="cls-7" cx="853.79" cy="350.64" r="25.26"/><circle class="cls-7" cx="772.09" cy="350.64" r="25.26"/><circle class="cls-7" cx="688.8" cy="350.64" r="25.26"/></svg>